<svg width="25" height="29" viewBox="0 0 25 29" fill="none" xmlns="http://www.w3.org/2000/svg">
<path d="M2.05387 11.2082C2.10624 10.5557 2.40249 9.94676 2.88362 9.50279C3.36474 9.05882 3.99544 8.81237 4.6501 8.8125H20.3499C21.0046 8.81237 21.6353 9.05882 22.1164 9.50279C22.5975 9.94676 22.8938 10.5557 22.9461 11.2082L23.9917 24.2285C24.0204 24.5868 23.9747 24.9471 23.8573 25.2869C23.74 25.6267 23.5535 25.9385 23.3098 26.2026C23.066 26.4668 22.7702 26.6777 22.441 26.8219C22.1117 26.9662 21.7562 27.0407 21.3967 27.0408H3.60328C3.24382 27.0407 2.88827 26.9662 2.55903 26.8219C2.22978 26.6777 1.93397 26.4668 1.69021 26.2026C1.44645 25.9385 1.26003 25.6267 1.14268 25.2869C1.02533 24.9471 0.97959 24.5868 1.00835 24.2285L2.05387 11.2082V11.2082Z" stroke="white" stroke-width="2" stroke-linecap="round" stroke-linejoin="round"/>
<path d="M17.7072 12.7182V6.20809C17.7072 4.82682 17.1585 3.50212 16.1818 2.52541C15.2051 1.54871 13.8804 1 12.4991 1C11.1178 1 9.79314 1.54871 8.81643 2.52541C7.83972 3.50212 7.29102 4.82682 7.29102 6.20809V12.7182" stroke="white" stroke-width="2" stroke-linecap="round" stroke-linejoin="round"/>
</svg>
