<svg width="1111" height="89" viewBox="0 0 1111 89" fill="none" xmlns="http://www.w3.org/2000/svg">
<rect width="1111" height="89" fill="white"/>
<rect width="1111" height="89" fill="url(#paint0_linear_452_79)"/>
<path d="M413.25 17.5H416.275L418.425 26.225L420.775 17.75H423.375L425.7 26.225L427.875 17.5H430.9L427.25 30H424.65L422.075 21.85L419.5 30H416.9L413.25 17.5ZM433.89 17.5H436.915L439.065 26.225L441.415 17.75H444.015L446.34 26.225L448.515 17.5H451.54L447.89 30H445.29L442.715 21.85L440.14 30H437.54L433.89 17.5ZM454.529 17.5H457.554L459.704 26.225L462.054 17.75H464.654L466.979 26.225L469.154 17.5H472.179L468.529 30H465.929L463.354 21.85L460.779 30H458.179L454.529 17.5ZM475.629 26.6H478.879V30H475.629V26.6ZM490.471 17.3C491.655 17.3 492.671 17.5917 493.521 18.175C494.371 18.7583 495.013 19.5417 495.446 20.525C495.88 21.5083 496.096 22.5917 496.096 23.775C496.096 24.9583 495.88 26.0417 495.446 27.025C495.013 28.0083 494.371 28.7917 493.521 29.375C492.671 29.9583 491.655 30.25 490.471 30.25C489.155 30.25 487.963 29.8917 486.896 29.175L486.846 30H483.946V11.25H487.046V18.425C488.063 17.675 489.205 17.3 490.471 17.3ZM490.021 27.7C490.938 27.7 491.646 27.3417 492.146 26.625C492.663 25.9083 492.921 24.9583 492.921 23.775C492.921 22.5917 492.663 21.6417 492.146 20.925C491.646 20.2083 490.938 19.85 490.021 19.85C488.971 19.85 488.188 20.2 487.671 20.9C487.155 21.6 486.896 22.5583 486.896 23.775C486.896 24.9917 487.155 25.95 487.671 26.65C488.188 27.35 488.971 27.7 490.021 27.7ZM511.654 17.5V30H508.754L508.704 29.25C508.32 29.5333 507.879 29.775 507.379 29.975C506.879 30.1583 506.395 30.25 505.929 30.25C504.079 30.25 502.729 29.7167 501.879 28.65C501.045 27.5833 500.629 26.1083 500.629 24.225V17.5H503.729V24.225C503.729 25.3917 503.92 26.2583 504.304 26.825C504.704 27.375 505.337 27.65 506.204 27.65C507.17 27.65 507.954 27.3 508.554 26.6V17.5H511.654ZM520.823 29.175L515.623 17.5H519.073L522.273 25.55L525.523 17.5H528.973L521.148 36.05H518.048L520.823 29.175ZM536.428 30.25C535.628 30.25 534.894 30.175 534.228 30.025C533.578 29.875 532.903 29.6417 532.203 29.325L532.478 26.675C533.178 27.0917 533.828 27.4083 534.428 27.625C535.044 27.825 535.678 27.925 536.328 27.925C537.594 27.925 538.228 27.5083 538.228 26.675C538.228 26.225 538.061 25.8833 537.728 25.65C537.394 25.4 536.794 25.1083 535.928 24.775C534.694 24.325 533.786 23.8167 533.203 23.25C532.619 22.6667 532.328 21.8833 532.328 20.9C532.328 19.8167 532.744 18.9417 533.578 18.275C534.411 17.5917 535.536 17.25 536.953 17.25C538.369 17.25 539.661 17.575 540.828 18.225L540.553 20.875C539.919 20.4417 539.319 20.1083 538.753 19.875C538.203 19.6417 537.619 19.525 537.003 19.525C536.469 19.525 536.053 19.6333 535.753 19.85C535.469 20.0667 535.328 20.375 535.328 20.775C535.328 21.0917 535.411 21.35 535.578 21.55C535.761 21.75 536.011 21.9333 536.328 22.1C536.644 22.25 537.169 22.4667 537.903 22.75C539.119 23.2167 539.994 23.7333 540.528 24.3C541.061 24.85 541.328 25.5917 541.328 26.525C541.328 27.7083 540.903 28.625 540.053 29.275C539.203 29.925 537.994 30.25 536.428 30.25ZM551.974 30.25C550.524 30.25 549.282 29.9583 548.249 29.375C547.232 28.775 546.466 27.9833 545.949 27C545.449 26 545.199 24.8917 545.199 23.675C545.199 22.5083 545.441 21.4417 545.924 20.475C546.407 19.5083 547.107 18.7417 548.024 18.175C548.941 17.5917 550.032 17.3 551.299 17.3C552.466 17.3 553.449 17.5417 554.249 18.025C555.066 18.5083 555.674 19.1583 556.074 19.975C556.491 20.7917 556.699 21.7083 556.699 22.725C556.699 23.225 556.632 23.7917 556.499 24.425H548.424C548.591 25.525 549.024 26.35 549.724 26.9C550.424 27.4333 551.266 27.7 552.249 27.7C553.599 27.7 554.849 27.3583 555.999 26.675L556.149 29.3C555.616 29.5833 554.991 29.8167 554.274 30C553.574 30.1667 552.807 30.25 551.974 30.25ZM553.549 22.325C553.549 21.675 553.366 21.1 552.999 20.6C552.632 20.1 552.066 19.85 551.299 19.85C550.532 19.85 549.916 20.075 549.449 20.525C548.982 20.975 548.666 21.575 548.499 22.325H553.549ZM564.015 30.25C562.982 30.25 562.115 29.9167 561.415 29.25C560.732 28.5667 560.39 27.65 560.39 26.5C560.39 25.4167 560.782 24.55 561.565 23.9C562.349 23.2333 563.274 22.7667 564.34 22.5C565.407 22.2167 566.432 22.0583 567.415 22.025C567.382 21.2917 567.19 20.7667 566.84 20.45C566.507 20.1333 565.949 19.975 565.165 19.975C564.615 19.975 564.074 20.05 563.54 20.2C563.024 20.35 562.424 20.5917 561.74 20.925L561.465 18.4C562.982 17.6667 564.499 17.3 566.015 17.3C567.482 17.3 568.599 17.7 569.365 18.5C570.149 19.3 570.54 20.575 570.54 22.325V25.7C570.54 26.3333 570.565 26.7917 570.615 27.075C570.682 27.3417 570.782 27.5167 570.915 27.6C571.065 27.6667 571.307 27.7 571.64 27.7H572.04L571.765 30.25H570.64C569.957 30.25 569.382 30.125 568.915 29.875C568.449 29.6083 568.09 29.25 567.84 28.8C567.44 29.25 566.89 29.6083 566.19 29.875C565.507 30.125 564.782 30.25 564.015 30.25ZM565.315 27.875C565.632 27.875 565.99 27.8 566.39 27.65C566.79 27.4833 567.14 27.2583 567.44 26.975V24.125C566.44 24.175 565.557 24.3917 564.79 24.775C564.024 25.1583 563.64 25.6917 563.64 26.375C563.64 26.8917 563.774 27.275 564.04 27.525C564.307 27.7583 564.732 27.875 565.315 27.875ZM579.816 30.25C579.016 30.25 578.283 30.175 577.616 30.025C576.966 29.875 576.291 29.6417 575.591 29.325L575.866 26.675C576.566 27.0917 577.216 27.4083 577.816 27.625C578.433 27.825 579.066 27.925 579.716 27.925C580.983 27.925 581.616 27.5083 581.616 26.675C581.616 26.225 581.45 25.8833 581.116 25.65C580.783 25.4 580.183 25.1083 579.316 24.775C578.083 24.325 577.175 23.8167 576.591 23.25C576.008 22.6667 575.716 21.8833 575.716 20.9C575.716 19.8167 576.133 18.9417 576.966 18.275C577.8 17.5917 578.925 17.25 580.341 17.25C581.758 17.25 583.05 17.575 584.216 18.225L583.941 20.875C583.308 20.4417 582.708 20.1083 582.141 19.875C581.591 19.6417 581.008 19.525 580.391 19.525C579.858 19.525 579.441 19.6333 579.141 19.85C578.858 20.0667 578.716 20.375 578.716 20.775C578.716 21.0917 578.8 21.35 578.966 21.55C579.15 21.75 579.4 21.9333 579.716 22.1C580.033 22.25 580.558 22.4667 581.291 22.75C582.508 23.2167 583.383 23.7333 583.916 24.3C584.45 24.85 584.716 25.5917 584.716 26.525C584.716 27.7083 584.291 28.625 583.441 29.275C582.591 29.925 581.383 30.25 579.816 30.25ZM595.638 17.3C597.221 17.3 598.396 17.8167 599.163 18.85C599.946 19.8667 600.338 21.2667 600.338 23.05V30H597.238V23.275C597.238 22.0917 597.046 21.225 596.663 20.675C596.279 20.125 595.671 19.85 594.838 19.85C593.854 19.85 593.046 20.2083 592.413 20.925V30H589.313V11.25H592.413V18.3C592.913 17.9833 593.421 17.7417 593.938 17.575C594.454 17.3917 595.021 17.3 595.638 17.3ZM611.632 30.25C610.182 30.25 608.941 29.9583 607.907 29.375C606.891 28.775 606.124 27.9833 605.607 27C605.107 26 604.857 24.8917 604.857 23.675C604.857 22.5083 605.099 21.4417 605.582 20.475C606.066 19.5083 606.766 18.7417 607.682 18.175C608.599 17.5917 609.691 17.3 610.957 17.3C612.124 17.3 613.107 17.5417 613.907 18.025C614.724 18.5083 615.332 19.1583 615.732 19.975C616.149 20.7917 616.357 21.7083 616.357 22.725C616.357 23.225 616.291 23.7917 616.157 24.425H608.082C608.249 25.525 608.682 26.35 609.382 26.9C610.082 27.4333 610.924 27.7 611.907 27.7C613.257 27.7 614.507 27.3583 615.657 26.675L615.807 29.3C615.274 29.5833 614.649 29.8167 613.932 30C613.232 30.1667 612.466 30.25 611.632 30.25ZM613.207 22.325C613.207 21.675 613.024 21.1 612.657 20.6C612.291 20.1 611.724 19.85 610.957 19.85C610.191 19.85 609.574 20.075 609.107 20.525C608.641 20.975 608.324 21.575 608.157 22.325H613.207ZM624.173 30.25C623.107 30.25 622.307 29.95 621.773 29.35C621.24 28.7333 620.973 27.9417 620.973 26.975V11.25H624.073V25.7C624.073 26.3667 624.107 26.8417 624.173 27.125C624.257 27.3917 624.39 27.5583 624.573 27.625C624.773 27.675 625.107 27.7 625.573 27.7L625.298 30.25H624.173ZM633.241 30.25C632.174 30.25 631.374 29.95 630.841 29.35C630.307 28.7333 630.041 27.9417 630.041 26.975V11.25H633.141V25.7C633.141 26.3667 633.174 26.8417 633.241 27.125C633.324 27.3917 633.457 27.5583 633.641 27.625C633.841 27.675 634.174 27.7 634.641 27.7L634.366 30.25H633.241ZM638.808 26.6H642.058V30H638.808V26.6ZM652.95 30.25C651.567 30.25 650.375 29.9667 649.375 29.4C648.392 28.8167 647.65 28.0333 647.15 27.05C646.65 26.0667 646.4 24.975 646.4 23.775C646.4 22.5583 646.65 21.4583 647.15 20.475C647.65 19.475 648.4 18.6917 649.4 18.125C650.4 17.5417 651.617 17.25 653.05 17.25C654.334 17.25 655.45 17.5167 656.4 18.05L656.15 20.55C655.25 20.0833 654.317 19.85 653.35 19.85C652.167 19.85 651.242 20.2083 650.575 20.925C649.909 21.6417 649.575 22.5917 649.575 23.775C649.575 24.9083 649.917 25.85 650.6 26.6C651.284 27.3333 652.192 27.7 653.325 27.7C654.275 27.7 655.225 27.425 656.175 26.875L656.45 29.5C656 29.7333 655.467 29.9167 654.85 30.05C654.25 30.1833 653.617 30.25 652.95 30.25ZM666.604 30.25C665.288 30.25 664.146 29.9583 663.179 29.375C662.213 28.7917 661.471 28.0083 660.954 27.025C660.438 26.0417 660.179 24.9583 660.179 23.775C660.179 22.5917 660.438 21.5 660.954 20.5C661.471 19.5 662.213 18.7083 663.179 18.125C664.146 17.5417 665.288 17.25 666.604 17.25C667.921 17.25 669.063 17.5417 670.029 18.125C670.996 18.7083 671.738 19.5 672.254 20.5C672.771 21.5 673.029 22.5917 673.029 23.775C673.029 24.9583 672.771 26.0417 672.254 27.025C671.738 28.0083 670.996 28.7917 670.029 29.375C669.063 29.9583 667.921 30.25 666.604 30.25ZM666.604 27.7C667.621 27.7 668.413 27.3417 668.979 26.625C669.563 25.9083 669.854 24.9583 669.854 23.775C669.854 22.575 669.563 21.6167 668.979 20.9C668.413 20.1667 667.621 19.8 666.604 19.8C665.588 19.8 664.788 20.1667 664.204 20.9C663.638 21.6167 663.354 22.575 663.354 23.775C663.354 24.9583 663.638 25.9083 664.204 26.625C664.788 27.3417 665.588 27.7 666.604 27.7ZM691.712 17.3C693.379 17.3 694.612 17.8083 695.412 18.825C696.229 19.825 696.637 21.2333 696.637 23.05V30H693.537V23.275C693.537 22.0917 693.354 21.225 692.987 20.675C692.621 20.125 692.021 19.85 691.187 19.85C690.371 19.85 689.754 20.1333 689.337 20.7C688.921 21.25 688.712 22.0333 688.712 23.05V30H685.612V23.275C685.612 22.0917 685.421 21.225 685.037 20.675C684.654 20.125 684.046 19.85 683.212 19.85C682.229 19.85 681.421 20.2083 680.787 20.925V30H677.687V17.5H680.337L680.437 18.5C681.571 17.7 682.796 17.3 684.112 17.3C685.712 17.3 686.904 17.875 687.687 19.025C688.121 18.475 688.687 18.05 689.387 17.75C690.087 17.45 690.862 17.3 691.712 17.3Z" fill="black"/>
<path d="M418.91 52.04C418.29 51.08 417.8 50.075 417.44 49.025C417.08 47.975 416.9 46.765 416.9 45.395C416.9 44.025 417.08 42.815 417.44 41.765C417.8 40.715 418.29 39.71 418.91 38.75H420.5C419.96 39.67 419.535 40.665 419.225 41.735C418.915 42.805 418.76 44.025 418.76 45.395C418.76 46.765 418.915 47.985 419.225 49.055C419.535 50.125 419.96 51.12 420.5 52.04H418.91ZM423.416 39.5H427.151C429.641 39.5 430.886 40.63 430.886 42.89C430.886 44.06 430.571 44.93 429.941 45.5C429.311 46.07 428.396 46.355 427.196 46.355H425.336V50H423.416V39.5ZM426.971 44.75C427.631 44.75 428.121 44.6 428.441 44.3C428.771 44 428.936 43.54 428.936 42.92C428.936 42.3 428.771 41.845 428.441 41.555C428.111 41.255 427.606 41.105 426.926 41.105H425.336V44.75H426.971ZM436.796 50.15C436.006 50.15 435.321 49.975 434.741 49.625C434.161 49.275 433.716 48.805 433.406 48.215C433.096 47.625 432.941 46.975 432.941 46.265C432.941 45.555 433.096 44.9 433.406 44.3C433.716 43.7 434.161 43.225 434.741 42.875C435.321 42.525 436.006 42.35 436.796 42.35C437.586 42.35 438.271 42.525 438.851 42.875C439.431 43.225 439.876 43.7 440.186 44.3C440.496 44.9 440.651 45.555 440.651 46.265C440.651 46.975 440.496 47.625 440.186 48.215C439.876 48.805 439.431 49.275 438.851 49.625C438.271 49.975 437.586 50.15 436.796 50.15ZM436.796 48.62C437.406 48.62 437.881 48.405 438.221 47.975C438.571 47.545 438.746 46.975 438.746 46.265C438.746 45.545 438.571 44.97 438.221 44.54C437.881 44.1 437.406 43.88 436.796 43.88C436.186 43.88 435.706 44.1 435.356 44.54C435.016 44.97 434.846 45.545 434.846 46.265C434.846 46.975 435.016 47.545 435.356 47.975C435.706 48.405 436.186 48.62 436.796 48.62ZM442.637 42.5H444.452L445.742 47.735L447.152 42.65H448.712L450.107 47.735L451.412 42.5H453.227L451.037 50H449.477L447.932 45.11L446.387 50H444.827L442.637 42.5ZM459.268 50.15C458.398 50.15 457.653 49.975 457.033 49.625C456.423 49.265 455.963 48.79 455.653 48.2C455.353 47.6 455.203 46.935 455.203 46.205C455.203 45.505 455.348 44.865 455.638 44.285C455.928 43.705 456.348 43.245 456.898 42.905C457.448 42.555 458.103 42.38 458.863 42.38C459.563 42.38 460.153 42.525 460.633 42.815C461.123 43.105 461.488 43.495 461.728 43.985C461.978 44.475 462.103 45.025 462.103 45.635C462.103 45.935 462.063 46.275 461.983 46.655H457.138C457.238 47.315 457.498 47.81 457.918 48.14C458.338 48.46 458.843 48.62 459.433 48.62C460.243 48.62 460.993 48.415 461.683 48.005L461.773 49.58C461.453 49.75 461.078 49.89 460.648 50C460.228 50.1 459.768 50.15 459.268 50.15ZM460.213 45.395C460.213 45.005 460.103 44.66 459.883 44.36C459.663 44.06 459.323 43.91 458.863 43.91C458.403 43.91 458.033 44.045 457.753 44.315C457.473 44.585 457.283 44.945 457.183 45.395H460.213ZM464.873 42.5H466.613L466.658 43.295C466.878 43.045 467.158 42.825 467.498 42.635C467.848 42.445 468.213 42.35 468.593 42.35C468.713 42.35 468.823 42.36 468.923 42.38L468.788 44.21C468.598 44.16 468.383 44.135 468.143 44.135C467.833 44.135 467.548 44.21 467.288 44.36C467.028 44.5 466.843 44.675 466.733 44.885V50H464.873V42.5ZM474.807 50.15C473.937 50.15 473.192 49.975 472.572 49.625C471.962 49.265 471.502 48.79 471.192 48.2C470.892 47.6 470.742 46.935 470.742 46.205C470.742 45.505 470.887 44.865 471.177 44.285C471.467 43.705 471.887 43.245 472.437 42.905C472.987 42.555 473.642 42.38 474.402 42.38C475.102 42.38 475.692 42.525 476.172 42.815C476.662 43.105 477.027 43.495 477.267 43.985C477.517 44.475 477.642 45.025 477.642 45.635C477.642 45.935 477.602 46.275 477.522 46.655H472.677C472.777 47.315 473.037 47.81 473.457 48.14C473.877 48.46 474.382 48.62 474.972 48.62C475.782 48.62 476.532 48.415 477.222 48.005L477.312 49.58C476.992 49.75 476.617 49.89 476.187 50C475.767 50.1 475.307 50.15 474.807 50.15ZM475.752 45.395C475.752 45.005 475.642 44.66 475.422 44.36C475.202 44.06 474.862 43.91 474.402 43.91C473.942 43.91 473.572 44.045 473.292 44.315C473.012 44.585 472.822 44.945 472.722 45.395H475.752ZM487.252 38.75V50H485.497L485.467 49.52C485.177 49.73 484.872 49.89 484.552 50C484.242 50.1 483.872 50.15 483.442 50.15C482.712 50.15 482.082 49.975 481.552 49.625C481.032 49.275 480.637 48.805 480.367 48.215C480.097 47.625 479.962 46.975 479.962 46.265C479.962 45.555 480.097 44.905 480.367 44.315C480.637 43.725 481.032 43.255 481.552 42.905C482.082 42.555 482.712 42.38 483.442 42.38C484.172 42.38 484.822 42.58 485.392 42.98V38.75H487.252ZM483.712 48.62C484.302 48.62 484.742 48.41 485.032 47.99C485.332 47.57 485.482 46.995 485.482 46.265C485.482 45.535 485.332 44.96 485.032 44.54C484.742 44.12 484.302 43.91 483.712 43.91C483.132 43.91 482.677 44.125 482.347 44.555C482.027 44.985 481.867 45.555 481.867 46.265C481.867 46.975 482.027 47.545 482.347 47.975C482.677 48.405 483.132 48.62 483.712 48.62ZM501.44 44.255C502.77 44.685 503.435 45.605 503.435 47.015C503.435 47.955 503.13 48.69 502.52 49.22C501.91 49.74 501.075 50 500.015 50H495.635V39.5H499.595C501.595 39.5 502.595 40.345 502.595 42.035C502.595 43.075 502.21 43.815 501.44 44.255ZM497.555 43.625H499.31C499.78 43.625 500.13 43.53 500.36 43.34C500.59 43.14 500.705 42.835 500.705 42.425C500.705 41.995 500.59 41.685 500.36 41.495C500.13 41.305 499.78 41.21 499.31 41.21H497.555V43.625ZM499.73 48.29C500.29 48.29 500.715 48.18 501.005 47.96C501.305 47.73 501.455 47.345 501.455 46.805C501.455 46.275 501.3 45.9 500.99 45.68C500.69 45.45 500.27 45.335 499.73 45.335H497.555V48.29H499.73ZM508.212 49.505L505.092 42.5H507.162L509.082 47.33L511.032 42.5H513.102L508.407 53.63H506.547L508.212 49.505ZM519.443 50.93C519.883 50.93 520.193 50.835 520.373 50.645C520.563 50.455 520.658 50.12 520.658 49.64V39.5H522.578V50.06C522.578 50.94 522.368 51.58 521.948 51.98C521.528 52.38 520.928 52.58 520.148 52.58H519.608L519.443 50.93ZM527.58 50.15C526.96 50.15 526.44 49.95 526.02 49.55C525.61 49.14 525.405 48.59 525.405 47.9C525.405 47.25 525.64 46.73 526.11 46.34C526.58 45.94 527.135 45.66 527.775 45.5C528.415 45.33 529.03 45.235 529.62 45.215C529.6 44.775 529.485 44.46 529.275 44.27C529.075 44.08 528.74 43.985 528.27 43.985C527.94 43.985 527.615 44.03 527.295 44.12C526.985 44.21 526.625 44.355 526.215 44.555L526.05 43.04C526.96 42.6 527.87 42.38 528.78 42.38C529.66 42.38 530.33 42.62 530.79 43.1C531.26 43.58 531.495 44.345 531.495 45.395V47.42C531.495 47.8 531.51 48.075 531.54 48.245C531.58 48.405 531.64 48.51 531.72 48.56C531.81 48.6 531.955 48.62 532.155 48.62H532.395L532.23 50.15H531.555C531.145 50.15 530.8 50.075 530.52 49.925C530.24 49.765 530.025 49.55 529.875 49.28C529.635 49.55 529.305 49.765 528.885 49.925C528.475 50.075 528.04 50.15 527.58 50.15ZM528.36 48.725C528.55 48.725 528.765 48.68 529.005 48.59C529.245 48.49 529.455 48.355 529.635 48.185V46.475C529.035 46.505 528.505 46.635 528.045 46.865C527.585 47.095 527.355 47.415 527.355 47.825C527.355 48.135 527.435 48.365 527.595 48.515C527.755 48.655 528.01 48.725 528.36 48.725ZM538.711 42.38C539.661 42.38 540.366 42.69 540.826 43.31C541.296 43.92 541.531 44.76 541.531 45.83V50H539.671V45.965C539.671 45.255 539.556 44.735 539.326 44.405C539.096 44.075 538.731 43.91 538.231 43.91C537.641 43.91 537.156 44.125 536.776 44.555V50H534.916V38.75H536.776V42.98C537.076 42.79 537.381 42.645 537.691 42.545C538.001 42.435 538.341 42.38 538.711 42.38ZM546.312 50.15C545.692 50.15 545.172 49.95 544.752 49.55C544.342 49.14 544.137 48.59 544.137 47.9C544.137 47.25 544.372 46.73 544.842 46.34C545.312 45.94 545.867 45.66 546.507 45.5C547.147 45.33 547.762 45.235 548.352 45.215C548.332 44.775 548.217 44.46 548.007 44.27C547.807 44.08 547.472 43.985 547.002 43.985C546.672 43.985 546.347 44.03 546.027 44.12C545.717 44.21 545.357 44.355 544.947 44.555L544.782 43.04C545.692 42.6 546.602 42.38 547.512 42.38C548.392 42.38 549.062 42.62 549.522 43.1C549.992 43.58 550.227 44.345 550.227 45.395V47.42C550.227 47.8 550.242 48.075 550.272 48.245C550.312 48.405 550.372 48.51 550.452 48.56C550.542 48.6 550.687 48.62 550.887 48.62H551.127L550.962 50.15H550.287C549.877 50.15 549.532 50.075 549.252 49.925C548.972 49.765 548.757 49.55 548.607 49.28C548.367 49.55 548.037 49.765 547.617 49.925C547.207 50.075 546.772 50.15 546.312 50.15ZM547.092 48.725C547.282 48.725 547.497 48.68 547.737 48.59C547.977 48.49 548.187 48.355 548.367 48.185V46.475C547.767 46.505 547.237 46.635 546.777 46.865C546.317 47.095 546.087 47.415 546.087 47.825C546.087 48.135 546.167 48.365 546.327 48.515C546.487 48.655 546.742 48.725 547.092 48.725ZM557.563 42.38C558.273 42.38 558.883 42.555 559.393 42.905C559.903 43.255 560.288 43.725 560.548 44.315C560.808 44.905 560.938 45.555 560.938 46.265C560.938 46.975 560.808 47.625 560.548 48.215C560.288 48.805 559.903 49.275 559.393 49.625C558.883 49.975 558.273 50.15 557.563 50.15C556.773 50.15 556.058 49.935 555.418 49.505L555.388 50H553.648V38.75H555.508V43.055C556.118 42.605 556.803 42.38 557.563 42.38ZM557.293 48.62C557.843 48.62 558.268 48.405 558.568 47.975C558.878 47.545 559.033 46.975 559.033 46.265C559.033 45.555 558.878 44.985 558.568 44.555C558.268 44.125 557.843 43.91 557.293 43.91C556.663 43.91 556.193 44.12 555.883 44.54C555.573 44.96 555.418 45.535 555.418 46.265C555.418 46.995 555.573 47.57 555.883 47.99C556.193 48.41 556.663 48.62 557.293 48.62ZM565.352 50.15C564.732 50.15 564.212 49.95 563.792 49.55C563.382 49.14 563.177 48.59 563.177 47.9C563.177 47.25 563.412 46.73 563.882 46.34C564.352 45.94 564.907 45.66 565.547 45.5C566.187 45.33 566.802 45.235 567.392 45.215C567.372 44.775 567.257 44.46 567.047 44.27C566.847 44.08 566.512 43.985 566.042 43.985C565.712 43.985 565.387 44.03 565.067 44.12C564.757 44.21 564.397 44.355 563.987 44.555L563.822 43.04C564.732 42.6 565.642 42.38 566.552 42.38C567.432 42.38 568.102 42.62 568.562 43.1C569.032 43.58 569.267 44.345 569.267 45.395V47.42C569.267 47.8 569.282 48.075 569.312 48.245C569.352 48.405 569.412 48.51 569.492 48.56C569.582 48.6 569.727 48.62 569.927 48.62H570.167L570.002 50.15H569.327C568.917 50.15 568.572 50.075 568.292 49.925C568.012 49.765 567.797 49.55 567.647 49.28C567.407 49.55 567.077 49.765 566.657 49.925C566.247 50.075 565.812 50.15 565.352 50.15ZM566.132 48.725C566.322 48.725 566.537 48.68 566.777 48.59C567.017 48.49 567.227 48.355 567.407 48.185V46.475C566.807 46.505 566.277 46.635 565.817 46.865C565.357 47.095 565.127 47.415 565.127 47.825C565.127 48.135 565.207 48.365 565.367 48.515C565.527 48.655 565.782 48.725 566.132 48.725ZM572.703 42.5H574.443L574.488 43.295C574.708 43.045 574.988 42.825 575.328 42.635C575.678 42.445 576.043 42.35 576.423 42.35C576.543 42.35 576.653 42.36 576.753 42.38L576.618 44.21C576.428 44.16 576.213 44.135 575.973 44.135C575.663 44.135 575.378 44.21 575.118 44.36C574.858 44.5 574.673 44.675 574.563 44.885V50H572.703V42.5ZM585.862 38.75V50H584.107L584.077 49.52C583.787 49.73 583.482 49.89 583.162 50C582.852 50.1 582.482 50.15 582.052 50.15C581.322 50.15 580.692 49.975 580.162 49.625C579.642 49.275 579.247 48.805 578.977 48.215C578.707 47.625 578.572 46.975 578.572 46.265C578.572 45.555 578.707 44.905 578.977 44.315C579.247 43.725 579.642 43.255 580.162 42.905C580.692 42.555 581.322 42.38 582.052 42.38C582.782 42.38 583.432 42.58 584.002 42.98V38.75H585.862ZM582.322 48.62C582.912 48.62 583.352 48.41 583.642 47.99C583.942 47.57 584.092 46.995 584.092 46.265C584.092 45.535 583.942 44.96 583.642 44.54C583.352 44.12 582.912 43.91 582.322 43.91C581.742 43.91 581.287 44.125 580.957 44.555C580.637 44.985 580.477 45.555 580.477 46.265C580.477 46.975 580.637 47.545 580.957 47.975C581.287 48.405 581.742 48.62 582.322 48.62ZM592.707 50.15C591.837 50.15 591.092 49.975 590.472 49.625C589.862 49.265 589.402 48.79 589.092 48.2C588.792 47.6 588.642 46.935 588.642 46.205C588.642 45.505 588.787 44.865 589.077 44.285C589.367 43.705 589.787 43.245 590.337 42.905C590.887 42.555 591.542 42.38 592.302 42.38C593.002 42.38 593.592 42.525 594.072 42.815C594.562 43.105 594.927 43.495 595.167 43.985C595.417 44.475 595.542 45.025 595.542 45.635C595.542 45.935 595.502 46.275 595.422 46.655H590.577C590.677 47.315 590.937 47.81 591.357 48.14C591.777 48.46 592.282 48.62 592.872 48.62C593.682 48.62 594.432 48.415 595.122 48.005L595.212 49.58C594.892 49.75 594.517 49.89 594.087 50C593.667 50.1 593.207 50.15 592.707 50.15ZM593.652 45.395C593.652 45.005 593.542 44.66 593.322 44.36C593.102 44.06 592.762 43.91 592.302 43.91C591.842 43.91 591.472 44.045 591.192 44.315C590.912 44.585 590.722 44.945 590.622 45.395H593.652ZM601.926 50.15C601.056 50.15 600.311 49.975 599.691 49.625C599.081 49.265 598.621 48.79 598.311 48.2C598.011 47.6 597.861 46.935 597.861 46.205C597.861 45.505 598.006 44.865 598.296 44.285C598.586 43.705 599.006 43.245 599.556 42.905C600.106 42.555 600.761 42.38 601.521 42.38C602.221 42.38 602.811 42.525 603.291 42.815C603.781 43.105 604.146 43.495 604.386 43.985C604.636 44.475 604.761 45.025 604.761 45.635C604.761 45.935 604.721 46.275 604.641 46.655H599.796C599.896 47.315 600.156 47.81 600.576 48.14C600.996 48.46 601.501 48.62 602.091 48.62C602.901 48.62 603.651 48.415 604.341 48.005L604.431 49.58C604.111 49.75 603.736 49.89 603.306 50C602.886 50.1 602.426 50.15 601.926 50.15ZM602.871 45.395C602.871 45.005 602.761 44.66 602.541 44.36C602.321 44.06 601.981 43.91 601.521 43.91C601.061 43.91 600.691 44.045 600.411 44.315C600.131 44.585 599.941 44.945 599.841 45.395H602.871ZM611.311 42.38C612.241 42.38 612.946 42.69 613.426 43.31C613.906 43.93 614.146 44.765 614.146 45.815V50H612.286V45.965C612.286 45.265 612.166 44.75 611.926 44.42C611.696 44.08 611.321 43.91 610.801 43.91C610.231 43.91 609.761 44.125 609.391 44.555V50H607.531V42.5H609.271L609.301 43.025C609.931 42.595 610.601 42.38 611.311 42.38ZM625.507 50.21C624.917 50.21 624.282 50.13 623.602 49.97C622.932 49.81 622.407 49.635 622.027 49.445L622.252 47.405C623.572 48.045 624.732 48.365 625.732 48.365C626.262 48.365 626.677 48.265 626.977 48.065C627.277 47.855 627.427 47.55 627.427 47.15C627.427 46.85 627.342 46.605 627.172 46.415C627.012 46.215 626.777 46.05 626.467 45.92C626.157 45.78 625.662 45.59 624.982 45.35C624.342 45.13 623.812 44.9 623.392 44.66C622.972 44.41 622.637 44.095 622.387 43.715C622.147 43.325 622.027 42.85 622.027 42.29C622.027 41.39 622.357 40.665 623.017 40.115C623.677 39.565 624.622 39.29 625.852 39.29C626.432 39.29 627.007 39.355 627.577 39.485C628.157 39.615 628.687 39.775 629.167 39.965L628.972 41.93C628.352 41.66 627.782 41.46 627.262 41.33C626.752 41.19 626.242 41.12 625.732 41.12C625.162 41.12 624.727 41.215 624.427 41.405C624.127 41.595 623.977 41.87 623.977 42.23C623.977 42.51 624.057 42.74 624.217 42.92C624.377 43.1 624.592 43.25 624.862 43.37C625.142 43.49 625.552 43.635 626.092 43.805C627.302 44.185 628.182 44.625 628.732 45.125C629.292 45.615 629.572 46.29 629.572 47.15C629.572 47.97 629.287 48.685 628.717 49.295C628.147 49.905 627.077 50.21 625.507 50.21ZM635.993 50.15C635.123 50.15 634.378 49.975 633.758 49.625C633.148 49.265 632.688 48.79 632.378 48.2C632.078 47.6 631.928 46.935 631.928 46.205C631.928 45.505 632.073 44.865 632.363 44.285C632.653 43.705 633.073 43.245 633.623 42.905C634.173 42.555 634.828 42.38 635.588 42.38C636.288 42.38 636.878 42.525 637.358 42.815C637.848 43.105 638.213 43.495 638.453 43.985C638.703 44.475 638.828 45.025 638.828 45.635C638.828 45.935 638.788 46.275 638.708 46.655H633.863C633.963 47.315 634.223 47.81 634.643 48.14C635.063 48.46 635.568 48.62 636.158 48.62C636.968 48.62 637.718 48.415 638.408 48.005L638.498 49.58C638.178 49.75 637.803 49.89 637.373 50C636.953 50.1 636.493 50.15 635.993 50.15ZM636.938 45.395C636.938 45.005 636.828 44.66 636.608 44.36C636.388 44.06 636.048 43.91 635.588 43.91C635.128 43.91 634.758 44.045 634.478 44.315C634.198 44.585 634.008 44.945 633.908 45.395H636.938ZM643.218 50.15C642.598 50.15 642.078 49.95 641.658 49.55C641.248 49.14 641.043 48.59 641.043 47.9C641.043 47.25 641.278 46.73 641.748 46.34C642.218 45.94 642.773 45.66 643.413 45.5C644.053 45.33 644.668 45.235 645.258 45.215C645.238 44.775 645.123 44.46 644.913 44.27C644.713 44.08 644.378 43.985 643.908 43.985C643.578 43.985 643.253 44.03 642.933 44.12C642.623 44.21 642.263 44.355 641.853 44.555L641.688 43.04C642.598 42.6 643.508 42.38 644.418 42.38C645.298 42.38 645.968 42.62 646.428 43.1C646.898 43.58 647.133 44.345 647.133 45.395V47.42C647.133 47.8 647.148 48.075 647.178 48.245C647.218 48.405 647.278 48.51 647.358 48.56C647.448 48.6 647.593 48.62 647.793 48.62H648.033L647.868 50.15H647.193C646.783 50.15 646.438 50.075 646.158 49.925C645.878 49.765 645.663 49.55 645.513 49.28C645.273 49.55 644.943 49.765 644.523 49.925C644.113 50.075 643.678 50.15 643.218 50.15ZM643.998 48.725C644.188 48.725 644.403 48.68 644.643 48.59C644.883 48.49 645.093 48.355 645.273 48.185V46.475C644.673 46.505 644.143 46.635 643.683 46.865C643.223 47.095 642.993 47.415 642.993 47.825C642.993 48.135 643.073 48.365 643.233 48.515C643.393 48.655 643.648 48.725 643.998 48.725ZM653.781 50.21C653.191 50.21 652.556 50.13 651.876 49.97C651.206 49.81 650.681 49.635 650.301 49.445L650.526 47.405C651.846 48.045 653.006 48.365 654.006 48.365C654.536 48.365 654.951 48.265 655.251 48.065C655.551 47.855 655.701 47.55 655.701 47.15C655.701 46.85 655.616 46.605 655.446 46.415C655.286 46.215 655.051 46.05 654.741 45.92C654.431 45.78 653.936 45.59 653.256 45.35C652.616 45.13 652.086 44.9 651.666 44.66C651.246 44.41 650.911 44.095 650.661 43.715C650.421 43.325 650.301 42.85 650.301 42.29C650.301 41.39 650.631 40.665 651.291 40.115C651.951 39.565 652.896 39.29 654.126 39.29C654.706 39.29 655.281 39.355 655.851 39.485C656.431 39.615 656.961 39.775 657.441 39.965L657.246 41.93C656.626 41.66 656.056 41.46 655.536 41.33C655.026 41.19 654.516 41.12 654.006 41.12C653.436 41.12 653.001 41.215 652.701 41.405C652.401 41.595 652.251 41.87 652.251 42.23C652.251 42.51 652.331 42.74 652.491 42.92C652.651 43.1 652.866 43.25 653.136 43.37C653.416 43.49 653.826 43.635 654.366 43.805C655.576 44.185 656.456 44.625 657.006 45.125C657.566 45.615 657.846 46.29 657.846 47.15C657.846 47.97 657.561 48.685 656.991 49.295C656.421 49.905 655.351 50.21 653.781 50.21ZM664.344 42.38C665.294 42.38 665.999 42.69 666.459 43.31C666.929 43.92 667.164 44.76 667.164 45.83V50H665.304V45.965C665.304 45.255 665.189 44.735 664.959 44.405C664.729 44.075 664.364 43.91 663.864 43.91C663.274 43.91 662.789 44.125 662.409 44.555V50H660.549V38.75H662.409V42.98C662.709 42.79 663.014 42.645 663.324 42.545C663.634 42.435 663.974 42.38 664.344 42.38ZM673.941 50.15C673.071 50.15 672.326 49.975 671.706 49.625C671.096 49.265 670.636 48.79 670.326 48.2C670.026 47.6 669.876 46.935 669.876 46.205C669.876 45.505 670.021 44.865 670.311 44.285C670.601 43.705 671.021 43.245 671.571 42.905C672.121 42.555 672.776 42.38 673.536 42.38C674.236 42.38 674.826 42.525 675.306 42.815C675.796 43.105 676.161 43.495 676.401 43.985C676.651 44.475 676.776 45.025 676.776 45.635C676.776 45.935 676.736 46.275 676.656 46.655H671.811C671.911 47.315 672.171 47.81 672.591 48.14C673.011 48.46 673.516 48.62 674.106 48.62C674.916 48.62 675.666 48.415 676.356 48.005L676.446 49.58C676.126 49.75 675.751 49.89 675.321 50C674.901 50.1 674.441 50.15 673.941 50.15ZM674.886 45.395C674.886 45.005 674.776 44.66 674.556 44.36C674.336 44.06 673.996 43.91 673.536 43.91C673.076 43.91 672.706 44.045 672.426 44.315C672.146 44.585 671.956 44.945 671.856 45.395H674.886ZM681.466 50.15C680.826 50.15 680.346 49.97 680.026 49.61C679.706 49.24 679.546 48.765 679.546 48.185V38.75H681.406V47.42C681.406 47.82 681.426 48.105 681.466 48.275C681.516 48.435 681.596 48.535 681.706 48.575C681.826 48.605 682.026 48.62 682.306 48.62L682.141 50.15H681.466ZM686.906 50.15C686.266 50.15 685.786 49.97 685.466 49.61C685.146 49.24 684.986 48.765 684.986 48.185V38.75H686.846V47.42C686.846 47.82 686.866 48.105 686.906 48.275C686.956 48.435 687.036 48.535 687.146 48.575C687.266 48.605 687.466 48.62 687.746 48.62L687.581 50.15H686.906ZM689.977 52.04C690.517 51.11 690.942 50.11 691.252 49.04C691.562 47.97 691.717 46.755 691.717 45.395C691.717 44.035 691.562 42.82 691.252 41.75C690.942 40.68 690.517 39.68 689.977 38.75H691.567C692.187 39.71 692.677 40.715 693.037 41.765C693.397 42.815 693.577 44.025 693.577 45.395C693.577 46.765 693.397 47.975 693.037 49.025C692.677 50.075 692.187 51.08 691.567 52.04H689.977Z" fill="black"/>
<path d="M215.26 68.48H211.3V66H221.78V68.48H217.82V80H215.26V68.48ZM230.177 69.84C231.443 69.84 232.383 70.2533 232.997 71.08C233.623 71.8933 233.937 73.0133 233.937 74.44V80H231.457V74.62C231.457 73.6733 231.303 72.98 230.997 72.54C230.69 72.1 230.203 71.88 229.537 71.88C228.75 71.88 228.103 72.1667 227.597 72.74V80H225.117V65H227.597V70.64C227.997 70.3867 228.403 70.1933 228.817 70.06C229.23 69.9133 229.683 69.84 230.177 69.84ZM238.152 66H240.632V68.48H238.152V66ZM238.152 70H240.632V80H238.152V70ZM244.957 70H247.277L247.337 71.06C247.63 70.7267 248.004 70.4333 248.457 70.18C248.924 69.9267 249.41 69.8 249.917 69.8C250.077 69.8 250.224 69.8133 250.357 69.84L250.177 72.28C249.924 72.2133 249.637 72.18 249.317 72.18C248.904 72.18 248.524 72.28 248.177 72.48C247.83 72.6667 247.584 72.9 247.437 73.18V80H244.957V70ZM262.503 65V80H260.163L260.123 79.36C259.736 79.64 259.329 79.8533 258.903 80C258.489 80.1333 257.996 80.2 257.423 80.2C256.449 80.2 255.609 79.9667 254.903 79.5C254.209 79.0333 253.683 78.4067 253.323 77.62C252.963 76.8333 252.783 75.9667 252.783 75.02C252.783 74.0733 252.963 73.2067 253.323 72.42C253.683 71.6333 254.209 71.0067 254.903 70.54C255.609 70.0733 256.449 69.84 257.423 69.84C258.396 69.84 259.263 70.1067 260.023 70.64V65H262.503ZM257.783 78.16C258.569 78.16 259.156 77.88 259.543 77.32C259.943 76.76 260.143 75.9933 260.143 75.02C260.143 74.0467 259.943 73.28 259.543 72.72C259.156 72.16 258.569 71.88 257.783 71.88C257.009 71.88 256.403 72.1667 255.963 72.74C255.536 73.3133 255.323 74.0733 255.323 75.02C255.323 75.9667 255.536 76.7267 255.963 77.3C256.403 77.8733 257.009 78.16 257.783 78.16ZM279.901 80.28C278.434 80.28 277.167 79.98 276.101 79.38C275.047 78.78 274.241 77.9333 273.681 76.84C273.121 75.7333 272.841 74.4467 272.841 72.98C272.841 71.54 273.147 70.2733 273.761 69.18C274.387 68.0733 275.254 67.22 276.361 66.62C277.467 66.02 278.734 65.72 280.161 65.72C280.881 65.72 281.581 65.7933 282.261 65.94C282.941 66.0867 283.527 66.2867 284.021 66.54L283.741 68.98C282.581 68.4467 281.387 68.18 280.161 68.18C278.667 68.18 277.541 68.62 276.781 69.5C276.021 70.3667 275.641 71.5133 275.641 72.94C275.641 74.42 276.014 75.6067 276.761 76.5C277.507 77.38 278.587 77.82 280.001 77.82C280.574 77.82 281.214 77.7467 281.921 77.6V75.1H280.001V72.98H284.481V79.22C283.961 79.5267 283.294 79.78 282.481 79.98C281.681 80.18 280.821 80.28 279.901 80.28ZM293.304 80.2C292.144 80.2 291.151 79.9667 290.324 79.5C289.511 79.02 288.898 78.3867 288.484 77.6C288.084 76.8 287.884 75.9133 287.884 74.94C287.884 74.0067 288.078 73.1533 288.464 72.38C288.851 71.6067 289.411 70.9933 290.144 70.54C290.878 70.0733 291.751 69.84 292.764 69.84C293.698 69.84 294.484 70.0333 295.124 70.42C295.778 70.8067 296.264 71.3267 296.584 71.98C296.918 72.6333 297.084 73.3667 297.084 74.18C297.084 74.58 297.031 75.0333 296.924 75.54H290.464C290.598 76.42 290.944 77.08 291.504 77.52C292.064 77.9467 292.738 78.16 293.524 78.16C294.604 78.16 295.604 77.8867 296.524 77.34L296.644 79.44C296.218 79.6667 295.718 79.8533 295.144 80C294.584 80.1333 293.971 80.2 293.304 80.2ZM294.564 73.86C294.564 73.34 294.418 72.88 294.124 72.48C293.831 72.08 293.378 71.88 292.764 71.88C292.151 71.88 291.658 72.06 291.284 72.42C290.911 72.78 290.658 73.26 290.524 73.86H294.564ZM305.817 69.84C307.057 69.84 307.997 70.2533 308.637 71.08C309.277 71.9067 309.597 73.02 309.597 74.42V80H307.117V74.62C307.117 73.6867 306.957 73 306.637 72.56C306.331 72.1067 305.831 71.88 305.137 71.88C304.377 71.88 303.751 72.1667 303.257 72.74V80H300.777V70H303.097L303.137 70.7C303.977 70.1267 304.871 69.84 305.817 69.84ZM318.632 80.2C317.472 80.2 316.479 79.9667 315.652 79.5C314.839 79.02 314.226 78.3867 313.812 77.6C313.412 76.8 313.212 75.9133 313.212 74.94C313.212 74.0067 313.406 73.1533 313.792 72.38C314.179 71.6067 314.739 70.9933 315.472 70.54C316.206 70.0733 317.079 69.84 318.092 69.84C319.026 69.84 319.812 70.0333 320.452 70.42C321.106 70.8067 321.592 71.3267 321.912 71.98C322.246 72.6333 322.412 73.3667 322.412 74.18C322.412 74.58 322.359 75.0333 322.252 75.54H315.792C315.926 76.42 316.272 77.08 316.832 77.52C317.392 77.9467 318.066 78.16 318.852 78.16C319.932 78.16 320.932 77.8867 321.852 77.34L321.972 79.44C321.546 79.6667 321.046 79.8533 320.472 80C319.912 80.1333 319.299 80.2 318.632 80.2ZM319.892 73.86C319.892 73.34 319.746 72.88 319.452 72.48C319.159 72.08 318.706 71.88 318.092 71.88C317.479 71.88 316.986 72.06 316.612 72.42C316.239 72.78 315.986 73.26 315.852 73.86H319.892ZM326.105 70H328.425L328.485 71.06C328.779 70.7267 329.152 70.4333 329.605 70.18C330.072 69.9267 330.559 69.8 331.065 69.8C331.225 69.8 331.372 69.8133 331.505 69.84L331.325 72.28C331.072 72.2133 330.785 72.18 330.465 72.18C330.052 72.18 329.672 72.28 329.325 72.48C328.979 72.6667 328.732 72.9 328.585 73.18V80H326.105V70ZM336.75 80.2C335.923 80.2 335.23 79.9333 334.67 79.4C334.123 78.8533 333.85 78.12 333.85 77.2C333.85 76.3333 334.163 75.64 334.79 75.12C335.416 74.5867 336.156 74.2133 337.01 74C337.863 73.7733 338.683 73.6467 339.47 73.62C339.443 73.0333 339.29 72.6133 339.01 72.36C338.743 72.1067 338.296 71.98 337.67 71.98C337.23 71.98 336.796 72.04 336.37 72.16C335.956 72.28 335.476 72.4733 334.93 72.74L334.71 70.72C335.923 70.1333 337.136 69.84 338.35 69.84C339.523 69.84 340.416 70.16 341.03 70.8C341.656 71.44 341.97 72.46 341.97 73.86V76.56C341.97 77.0667 341.99 77.4333 342.03 77.66C342.083 77.8733 342.163 78.0133 342.27 78.08C342.39 78.1333 342.583 78.16 342.85 78.16H343.17L342.95 80.2H342.05C341.503 80.2 341.043 80.1 340.67 79.9C340.296 79.6867 340.01 79.4 339.81 79.04C339.49 79.4 339.05 79.6867 338.49 79.9C337.943 80.1 337.363 80.2 336.75 80.2ZM337.79 78.3C338.043 78.3 338.33 78.24 338.65 78.12C338.97 77.9867 339.25 77.8067 339.49 77.58V75.3C338.69 75.34 337.983 75.5133 337.37 75.82C336.756 76.1267 336.45 76.5533 336.45 77.1C336.45 77.5133 336.556 77.82 336.77 78.02C336.983 78.2067 337.323 78.3 337.79 78.3ZM349.654 80.2C348.774 80.2 348.108 79.9467 347.654 79.44C347.201 78.92 346.974 78.3 346.974 77.58V72.04H345.554L345.774 70H346.974V67.8L349.454 67.54V70H351.654V72.04H349.454V76.56C349.454 77.0933 349.481 77.4667 349.534 77.68C349.601 77.88 349.728 78.0133 349.914 78.08C350.114 78.1333 350.468 78.16 350.974 78.16H351.654L351.434 80.2H349.654ZM355.269 66H357.749V68.48H355.269V66ZM355.269 70H357.749V80H355.269V70ZM366.614 80.2C365.561 80.2 364.647 79.9667 363.874 79.5C363.101 79.0333 362.507 78.4067 362.094 77.62C361.681 76.8333 361.474 75.9667 361.474 75.02C361.474 74.0733 361.681 73.2 362.094 72.4C362.507 71.6 363.101 70.9667 363.874 70.5C364.647 70.0333 365.561 69.8 366.614 69.8C367.667 69.8 368.581 70.0333 369.354 70.5C370.127 70.9667 370.721 71.6 371.134 72.4C371.547 73.2 371.754 74.0733 371.754 75.02C371.754 75.9667 371.547 76.8333 371.134 77.62C370.721 78.4067 370.127 79.0333 369.354 79.5C368.581 79.9667 367.667 80.2 366.614 80.2ZM366.614 78.16C367.427 78.16 368.061 77.8733 368.514 77.3C368.981 76.7267 369.214 75.9667 369.214 75.02C369.214 74.06 368.981 73.2933 368.514 72.72C368.061 72.1333 367.427 71.84 366.614 71.84C365.801 71.84 365.161 72.1333 364.694 72.72C364.241 73.2933 364.014 74.06 364.014 75.02C364.014 75.9667 364.241 76.7267 364.694 77.3C365.161 77.8733 365.801 78.16 366.614 78.16ZM380.52 69.84C381.76 69.84 382.7 70.2533 383.34 71.08C383.98 71.9067 384.3 73.02 384.3 74.42V80H381.82V74.62C381.82 73.6867 381.66 73 381.34 72.56C381.034 72.1067 380.534 71.88 379.84 71.88C379.08 71.88 378.454 72.1667 377.96 72.74V80H375.48V70H377.8L377.84 70.7C378.68 70.1267 379.574 69.84 380.52 69.84ZM406.968 80L405.768 70.62L402.188 77.06L398.588 70.64L397.388 80H394.728L396.668 66H398.768L402.188 72.38L405.588 66H407.688L409.628 80H406.968ZM418.234 80.2C417.074 80.2 416.081 79.9667 415.254 79.5C414.441 79.02 413.827 78.3867 413.414 77.6C413.014 76.8 412.814 75.9133 412.814 74.94C412.814 74.0067 413.007 73.1533 413.394 72.38C413.781 71.6067 414.341 70.9933 415.074 70.54C415.807 70.0733 416.681 69.84 417.694 69.84C418.627 69.84 419.414 70.0333 420.054 70.42C420.707 70.8067 421.194 71.3267 421.514 71.98C421.847 72.6333 422.014 73.3667 422.014 74.18C422.014 74.58 421.961 75.0333 421.854 75.54H415.394C415.527 76.42 415.874 77.08 416.434 77.52C416.994 77.9467 417.667 78.16 418.454 78.16C419.534 78.16 420.534 77.8867 421.454 77.34L421.574 79.44C421.147 79.6667 420.647 79.8533 420.074 80C419.514 80.1333 418.901 80.2 418.234 80.2ZM419.494 73.86C419.494 73.34 419.347 72.88 419.054 72.48C418.761 72.08 418.307 71.88 417.694 71.88C417.081 71.88 416.587 72.06 416.214 72.42C415.841 72.78 415.587 73.26 415.454 73.86H419.494ZM425.707 70H428.027L428.087 71.06C428.38 70.7267 428.754 70.4333 429.207 70.18C429.674 69.9267 430.16 69.8 430.667 69.8C430.827 69.8 430.974 69.8133 431.107 69.84L430.927 72.28C430.674 72.2133 430.387 72.18 430.067 72.18C429.654 72.18 429.274 72.28 428.927 72.48C428.58 72.6667 428.334 72.9 428.187 73.18V80H425.707V70ZM438.773 80.2C437.666 80.2 436.713 79.9733 435.913 79.52C435.126 79.0533 434.533 78.4267 434.133 77.64C433.733 76.8533 433.533 75.98 433.533 75.02C433.533 74.0467 433.733 73.1667 434.133 72.38C434.533 71.58 435.133 70.9533 435.933 70.5C436.733 70.0333 437.706 69.8 438.853 69.8C439.879 69.8 440.773 70.0133 441.533 70.44L441.333 72.44C440.613 72.0667 439.866 71.88 439.093 71.88C438.146 71.88 437.406 72.1667 436.873 72.74C436.339 73.3133 436.073 74.0733 436.073 75.02C436.073 75.9267 436.346 76.68 436.893 77.28C437.439 77.8667 438.166 78.16 439.073 78.16C439.833 78.16 440.593 77.94 441.353 77.5L441.573 79.6C441.213 79.7867 440.786 79.9333 440.293 80.04C439.813 80.1467 439.306 80.2 438.773 80.2ZM450.274 69.84C451.541 69.84 452.481 70.2533 453.094 71.08C453.721 71.8933 454.034 73.0133 454.034 74.44V80H451.554V74.62C451.554 73.6733 451.401 72.98 451.094 72.54C450.788 72.1 450.301 71.88 449.634 71.88C448.848 71.88 448.201 72.1667 447.694 72.74V80H445.214V65H447.694V70.64C448.094 70.3867 448.501 70.1933 448.914 70.06C449.328 69.9133 449.781 69.84 450.274 69.84ZM460.41 80.2C459.583 80.2 458.89 79.9333 458.33 79.4C457.783 78.8533 457.51 78.12 457.51 77.2C457.51 76.3333 457.823 75.64 458.45 75.12C459.077 74.5867 459.817 74.2133 460.67 74C461.523 73.7733 462.343 73.6467 463.13 73.62C463.103 73.0333 462.95 72.6133 462.67 72.36C462.403 72.1067 461.957 71.98 461.33 71.98C460.89 71.98 460.457 72.04 460.03 72.16C459.617 72.28 459.137 72.4733 458.59 72.74L458.37 70.72C459.583 70.1333 460.797 69.84 462.01 69.84C463.183 69.84 464.077 70.16 464.69 70.8C465.317 71.44 465.63 72.46 465.63 73.86V76.56C465.63 77.0667 465.65 77.4333 465.69 77.66C465.743 77.8733 465.823 78.0133 465.93 78.08C466.05 78.1333 466.243 78.16 466.51 78.16H466.83L466.61 80.2H465.71C465.163 80.2 464.703 80.1 464.33 79.9C463.957 79.6867 463.67 79.4 463.47 79.04C463.15 79.4 462.71 79.6867 462.15 79.9C461.603 80.1 461.023 80.2 460.41 80.2ZM461.45 78.3C461.703 78.3 461.99 78.24 462.31 78.12C462.63 77.9867 462.91 77.8067 463.15 77.58V75.3C462.35 75.34 461.643 75.5133 461.03 75.82C460.417 76.1267 460.11 76.5533 460.11 77.1C460.11 77.5133 460.217 77.82 460.43 78.02C460.643 78.2067 460.983 78.3 461.45 78.3ZM475.251 69.84C476.491 69.84 477.431 70.2533 478.071 71.08C478.711 71.9067 479.031 73.02 479.031 74.42V80H476.551V74.62C476.551 73.6867 476.391 73 476.071 72.56C475.764 72.1067 475.264 71.88 474.571 71.88C473.811 71.88 473.184 72.1667 472.691 72.74V80H470.211V70H472.531L472.571 70.7C473.411 70.1267 474.304 69.84 475.251 69.84ZM486.389 80.2C485.509 80.2 484.842 79.9467 484.389 79.44C483.935 78.92 483.709 78.3 483.709 77.58V72.04H482.289L482.509 70H483.709V67.8L486.189 67.54V70H488.389V72.04H486.189V76.56C486.189 77.0933 486.215 77.4667 486.269 77.68C486.335 77.88 486.462 78.0133 486.649 78.08C486.849 78.1333 487.202 78.16 487.709 78.16H488.389L488.169 80.2H486.389ZM494.844 80.2C494.204 80.2 493.617 80.14 493.084 80.02C492.564 79.9 492.024 79.7133 491.464 79.46L491.684 77.34C492.244 77.6733 492.764 77.9267 493.244 78.1C493.737 78.26 494.244 78.34 494.764 78.34C495.777 78.34 496.284 78.0067 496.284 77.34C496.284 76.98 496.15 76.7067 495.884 76.52C495.617 76.32 495.137 76.0867 494.444 75.82C493.457 75.46 492.73 75.0533 492.264 74.6C491.797 74.1333 491.564 73.5067 491.564 72.72C491.564 71.8533 491.897 71.1533 492.564 70.62C493.23 70.0733 494.13 69.8 495.264 69.8C496.397 69.8 497.43 70.06 498.364 70.58L498.144 72.7C497.637 72.3533 497.157 72.0867 496.704 71.9C496.264 71.7133 495.797 71.62 495.304 71.62C494.877 71.62 494.544 71.7067 494.304 71.88C494.077 72.0533 493.964 72.3 493.964 72.62C493.964 72.8733 494.03 73.08 494.164 73.24C494.31 73.4 494.51 73.5467 494.764 73.68C495.017 73.8 495.437 73.9733 496.024 74.2C496.997 74.5733 497.697 74.9867 498.124 75.44C498.55 75.88 498.764 76.4733 498.764 77.22C498.764 78.1667 498.424 78.9 497.744 79.42C497.064 79.94 496.097 80.2 494.844 80.2ZM513.493 80.2C512.44 80.2 511.526 79.9667 510.753 79.5C509.98 79.0333 509.386 78.4067 508.973 77.62C508.56 76.8333 508.353 75.9667 508.353 75.02C508.353 74.0733 508.56 73.2 508.973 72.4C509.386 71.6 509.98 70.9667 510.753 70.5C511.526 70.0333 512.44 69.8 513.493 69.8C514.546 69.8 515.46 70.0333 516.233 70.5C517.006 70.9667 517.6 71.6 518.013 72.4C518.426 73.2 518.633 74.0733 518.633 75.02C518.633 75.9667 518.426 76.8333 518.013 77.62C517.6 78.4067 517.006 79.0333 516.233 79.5C515.46 79.9667 514.546 80.2 513.493 80.2ZM513.493 78.16C514.306 78.16 514.94 77.8733 515.393 77.3C515.86 76.7267 516.093 75.9667 516.093 75.02C516.093 74.06 515.86 73.2933 515.393 72.72C514.94 72.1333 514.306 71.84 513.493 71.84C512.68 71.84 512.04 72.1333 511.573 72.72C511.12 73.2933 510.893 74.06 510.893 75.02C510.893 75.9667 511.12 76.7267 511.573 77.3C512.04 77.8733 512.68 78.16 513.493 78.16ZM522.842 72.04H521.422L521.642 70H522.842V67.88C522.842 66.9867 523.102 66.2867 523.622 65.78C524.155 65.26 524.909 65 525.882 65C526.429 65 526.969 65.06 527.502 65.18L527.282 67.18C527.055 67.1133 526.795 67.08 526.502 67.08C525.715 67.08 525.322 67.4933 525.322 68.32V70H527.522V72.04H525.322V80H522.842V72.04ZM541.971 80.28C541.184 80.28 540.338 80.1733 539.431 79.96C538.538 79.7467 537.838 79.5133 537.331 79.26L537.631 76.54C539.391 77.3933 540.938 77.82 542.271 77.82C542.978 77.82 543.531 77.6867 543.931 77.42C544.331 77.14 544.531 76.7333 544.531 76.2C544.531 75.8 544.418 75.4733 544.191 75.22C543.978 74.9533 543.664 74.7333 543.251 74.56C542.838 74.3733 542.178 74.12 541.271 73.8C540.418 73.5067 539.711 73.2 539.151 72.88C538.591 72.5467 538.144 72.1267 537.811 71.62C537.491 71.1 537.331 70.4667 537.331 69.72C537.331 68.52 537.771 67.5533 538.651 66.82C539.531 66.0867 540.791 65.72 542.431 65.72C543.204 65.72 543.971 65.8067 544.731 65.98C545.504 66.1533 546.211 66.3667 546.851 66.62L546.591 69.24C545.764 68.88 545.004 68.6133 544.311 68.44C543.631 68.2533 542.951 68.16 542.271 68.16C541.511 68.16 540.931 68.2867 540.531 68.54C540.131 68.7933 539.931 69.16 539.931 69.64C539.931 70.0133 540.038 70.32 540.251 70.56C540.464 70.8 540.751 71 541.111 71.16C541.484 71.32 542.031 71.5133 542.751 71.74C544.364 72.2467 545.538 72.8333 546.271 73.5C547.018 74.1533 547.391 75.0533 547.391 76.2C547.391 77.2933 547.011 78.2467 546.251 79.06C545.491 79.8733 544.064 80.28 541.971 80.28ZM555.953 80.2C554.793 80.2 553.799 79.9667 552.973 79.5C552.159 79.02 551.546 78.3867 551.133 77.6C550.733 76.8 550.533 75.9133 550.533 74.94C550.533 74.0067 550.726 73.1533 551.113 72.38C551.499 71.6067 552.059 70.9933 552.793 70.54C553.526 70.0733 554.399 69.84 555.413 69.84C556.346 69.84 557.133 70.0333 557.773 70.42C558.426 70.8067 558.913 71.3267 559.233 71.98C559.566 72.6333 559.733 73.3667 559.733 74.18C559.733 74.58 559.679 75.0333 559.573 75.54H553.113C553.246 76.42 553.593 77.08 554.153 77.52C554.713 77.9467 555.386 78.16 556.173 78.16C557.253 78.16 558.253 77.8867 559.173 77.34L559.293 79.44C558.866 79.6667 558.366 79.8533 557.793 80C557.233 80.1333 556.619 80.2 555.953 80.2ZM557.213 73.86C557.213 73.34 557.066 72.88 556.773 72.48C556.479 72.08 556.026 71.88 555.413 71.88C554.799 71.88 554.306 72.06 553.933 72.42C553.559 72.78 553.306 73.26 553.173 73.86H557.213ZM565.586 80.2C564.759 80.2 564.066 79.9333 563.506 79.4C562.959 78.8533 562.686 78.12 562.686 77.2C562.686 76.3333 562.999 75.64 563.626 75.12C564.252 74.5867 564.992 74.2133 565.846 74C566.699 73.7733 567.519 73.6467 568.306 73.62C568.279 73.0333 568.126 72.6133 567.846 72.36C567.579 72.1067 567.132 71.98 566.506 71.98C566.066 71.98 565.632 72.04 565.206 72.16C564.792 72.28 564.312 72.4733 563.766 72.74L563.546 70.72C564.759 70.1333 565.972 69.84 567.186 69.84C568.359 69.84 569.252 70.16 569.866 70.8C570.492 71.44 570.806 72.46 570.806 73.86V76.56C570.806 77.0667 570.826 77.4333 570.866 77.66C570.919 77.8733 570.999 78.0133 571.106 78.08C571.226 78.1333 571.419 78.16 571.686 78.16H572.006L571.786 80.2H570.886C570.339 80.2 569.879 80.1 569.506 79.9C569.132 79.6867 568.846 79.4 568.646 79.04C568.326 79.4 567.886 79.6867 567.326 79.9C566.779 80.1 566.199 80.2 565.586 80.2ZM566.626 78.3C566.879 78.3 567.166 78.24 567.486 78.12C567.806 77.9867 568.086 77.8067 568.326 77.58V75.3C567.526 75.34 566.819 75.5133 566.206 75.82C565.592 76.1267 565.286 76.5533 565.286 77.1C565.286 77.5133 565.392 77.82 565.606 78.02C565.819 78.2067 566.159 78.3 566.626 78.3ZM579.67 80.28C578.884 80.28 578.037 80.1733 577.13 79.96C576.237 79.7467 575.537 79.5133 575.03 79.26L575.33 76.54C577.09 77.3933 578.637 77.82 579.97 77.82C580.677 77.82 581.23 77.6867 581.63 77.42C582.03 77.14 582.23 76.7333 582.23 76.2C582.23 75.8 582.117 75.4733 581.89 75.22C581.677 74.9533 581.364 74.7333 580.95 74.56C580.537 74.3733 579.877 74.12 578.97 73.8C578.117 73.5067 577.41 73.2 576.85 72.88C576.29 72.5467 575.844 72.1267 575.51 71.62C575.19 71.1 575.03 70.4667 575.03 69.72C575.03 68.52 575.47 67.5533 576.35 66.82C577.23 66.0867 578.49 65.72 580.13 65.72C580.904 65.72 581.67 65.8067 582.43 65.98C583.204 66.1533 583.91 66.3667 584.55 66.62L584.29 69.24C583.464 68.88 582.704 68.6133 582.01 68.44C581.33 68.2533 580.65 68.16 579.97 68.16C579.21 68.16 578.63 68.2867 578.23 68.54C577.83 68.7933 577.63 69.16 577.63 69.64C577.63 70.0133 577.737 70.32 577.95 70.56C578.164 70.8 578.45 71 578.81 71.16C579.184 71.32 579.73 71.5133 580.45 71.74C582.064 72.2467 583.237 72.8333 583.97 73.5C584.717 74.1533 585.09 75.0533 585.09 76.2C585.09 77.2933 584.71 78.2467 583.95 79.06C583.19 79.8733 581.764 80.28 579.67 80.28ZM593.755 69.84C595.021 69.84 595.961 70.2533 596.575 71.08C597.201 71.8933 597.515 73.0133 597.515 74.44V80H595.035V74.62C595.035 73.6733 594.881 72.98 594.575 72.54C594.268 72.1 593.781 71.88 593.115 71.88C592.328 71.88 591.681 72.1667 591.175 72.74V80H588.695V65H591.175V70.64C591.575 70.3867 591.981 70.1933 592.395 70.06C592.808 69.9133 593.261 69.84 593.755 69.84ZM606.55 80.2C605.39 80.2 604.397 79.9667 603.57 79.5C602.757 79.02 602.144 78.3867 601.73 77.6C601.33 76.8 601.13 75.9133 601.13 74.94C601.13 74.0067 601.324 73.1533 601.71 72.38C602.097 71.6067 602.657 70.9933 603.39 70.54C604.124 70.0733 604.997 69.84 606.01 69.84C606.944 69.84 607.73 70.0333 608.37 70.42C609.024 70.8067 609.51 71.3267 609.83 71.98C610.164 72.6333 610.33 73.3667 610.33 74.18C610.33 74.58 610.277 75.0333 610.17 75.54H603.71C603.844 76.42 604.19 77.08 604.75 77.52C605.31 77.9467 605.984 78.16 606.77 78.16C607.85 78.16 608.85 77.8867 609.77 77.34L609.89 79.44C609.464 79.6667 608.964 79.8533 608.39 80C607.83 80.1333 607.217 80.2 606.55 80.2ZM607.81 73.86C607.81 73.34 607.664 72.88 607.37 72.48C607.077 72.08 606.624 71.88 606.01 71.88C605.397 71.88 604.904 72.06 604.53 72.42C604.157 72.78 603.904 73.26 603.77 73.86H607.81ZM616.583 80.2C615.73 80.2 615.09 79.96 614.663 79.48C614.237 78.9867 614.023 78.3533 614.023 77.58V65H616.503V76.56C616.503 77.0933 616.53 77.4733 616.583 77.7C616.65 77.9133 616.757 78.0467 616.903 78.1C617.063 78.14 617.33 78.16 617.703 78.16L617.483 80.2H616.583ZM623.837 80.2C622.984 80.2 622.344 79.96 621.917 79.48C621.491 78.9867 621.277 78.3533 621.277 77.58V65H623.757V76.56C623.757 77.0933 623.784 77.4733 623.837 77.7C623.904 77.9133 624.011 78.0467 624.157 78.1C624.317 78.14 624.584 78.16 624.957 78.16L624.737 80.2H623.837ZM635.403 66H644.023V68.48H637.963V71.46H642.643V73.94H637.963V80H635.403V66ZM646.808 70H649.128L649.188 71.06C649.482 70.7267 649.855 70.4333 650.308 70.18C650.775 69.9267 651.262 69.8 651.768 69.8C651.928 69.8 652.075 69.8133 652.208 69.84L652.028 72.28C651.775 72.2133 651.488 72.18 651.168 72.18C650.755 72.18 650.375 72.28 650.028 72.48C649.682 72.6667 649.435 72.9 649.288 73.18V80H646.808V70ZM659.774 80.2C658.721 80.2 657.808 79.9667 657.034 79.5C656.261 79.0333 655.668 78.4067 655.254 77.62C654.841 76.8333 654.634 75.9667 654.634 75.02C654.634 74.0733 654.841 73.2 655.254 72.4C655.668 71.6 656.261 70.9667 657.034 70.5C657.808 70.0333 658.721 69.8 659.774 69.8C660.828 69.8 661.741 70.0333 662.514 70.5C663.288 70.9667 663.881 71.6 664.294 72.4C664.708 73.2 664.914 74.0733 664.914 75.02C664.914 75.9667 664.708 76.8333 664.294 77.62C663.881 78.4067 663.288 79.0333 662.514 79.5C661.741 79.9667 660.828 80.2 659.774 80.2ZM659.774 78.16C660.588 78.16 661.221 77.8733 661.674 77.3C662.141 76.7267 662.374 75.9667 662.374 75.02C662.374 74.06 662.141 73.2933 661.674 72.72C661.221 72.1333 660.588 71.84 659.774 71.84C658.961 71.84 658.321 72.1333 657.854 72.72C657.401 73.2933 657.174 74.06 657.174 75.02C657.174 75.9667 657.401 76.7267 657.854 77.3C658.321 77.8733 658.961 78.16 659.774 78.16ZM679.86 69.84C681.194 69.84 682.18 70.2467 682.82 71.06C683.474 71.86 683.8 72.9867 683.8 74.44V80H681.32V74.62C681.32 73.6733 681.174 72.98 680.88 72.54C680.587 72.1 680.107 71.88 679.44 71.88C678.787 71.88 678.294 72.1067 677.96 72.56C677.627 73 677.46 73.6267 677.46 74.44V80H674.98V74.62C674.98 73.6733 674.827 72.98 674.52 72.54C674.214 72.1 673.727 71.88 673.06 71.88C672.274 71.88 671.627 72.1667 671.12 72.74V80H668.64V70H670.76L670.84 70.8C671.747 70.16 672.727 69.84 673.78 69.84C675.06 69.84 676.014 70.3 676.64 71.22C676.987 70.78 677.44 70.44 678 70.2C678.56 69.96 679.18 69.84 679.86 69.84ZM694.895 66H700.015C701.509 66 702.682 66.36 703.535 67.08C704.402 67.7867 704.835 68.84 704.835 70.24C704.835 71.2133 704.629 72.0133 704.215 72.64C703.802 73.2533 703.215 73.7467 702.455 74.12L705.615 80H702.755L700.055 74.8H699.955H697.455V80H694.895V66ZM699.335 72.66C701.215 72.66 702.155 71.9 702.155 70.38C702.155 69.6467 701.942 69.0933 701.515 68.72C701.089 68.3333 700.395 68.14 699.435 68.14H697.455V72.66H699.335ZM711.097 80.2C710.271 80.2 709.577 79.9333 709.017 79.4C708.471 78.8533 708.197 78.12 708.197 77.2C708.197 76.3333 708.511 75.64 709.137 75.12C709.764 74.5867 710.504 74.2133 711.357 74C712.211 73.7733 713.031 73.6467 713.817 73.62C713.791 73.0333 713.637 72.6133 713.357 72.36C713.091 72.1067 712.644 71.98 712.017 71.98C711.577 71.98 711.144 72.04 710.717 72.16C710.304 72.28 709.824 72.4733 709.277 72.74L709.057 70.72C710.271 70.1333 711.484 69.84 712.697 69.84C713.871 69.84 714.764 70.16 715.377 70.8C716.004 71.44 716.317 72.46 716.317 73.86V76.56C716.317 77.0667 716.337 77.4333 716.377 77.66C716.431 77.8733 716.511 78.0133 716.617 78.08C716.737 78.1333 716.931 78.16 717.197 78.16H717.517L717.297 80.2H716.397C715.851 80.2 715.391 80.1 715.017 79.9C714.644 79.6867 714.357 79.4 714.157 79.04C713.837 79.4 713.397 79.6867 712.837 79.9C712.291 80.1 711.711 80.2 711.097 80.2ZM712.137 78.3C712.391 78.3 712.677 78.24 712.997 78.12C713.317 77.9867 713.597 77.8067 713.837 77.58V75.3C713.037 75.34 712.331 75.5133 711.717 75.82C711.104 76.1267 710.797 76.5533 710.797 77.1C710.797 77.5133 710.904 77.82 711.117 78.02C711.331 78.2067 711.671 78.3 712.137 78.3ZM732.118 69.84C733.452 69.84 734.438 70.2467 735.078 71.06C735.732 71.86 736.058 72.9867 736.058 74.44V80H733.578V74.62C733.578 73.6733 733.432 72.98 733.138 72.54C732.845 72.1 732.365 71.88 731.698 71.88C731.045 71.88 730.552 72.1067 730.218 72.56C729.885 73 729.718 73.6267 729.718 74.44V80H727.238V74.62C727.238 73.6733 727.085 72.98 726.778 72.54C726.472 72.1 725.985 71.88 725.318 71.88C724.532 71.88 723.885 72.1667 723.378 72.74V80H720.898V70H723.018L723.098 70.8C724.005 70.16 724.985 69.84 726.038 69.84C727.318 69.84 728.272 70.3 728.898 71.22C729.245 70.78 729.698 70.44 730.258 70.2C730.818 69.96 731.438 69.84 732.118 69.84ZM745.101 80.2C743.941 80.2 742.948 79.9667 742.121 79.5C741.308 79.02 740.694 78.3867 740.281 77.6C739.881 76.8 739.681 75.9133 739.681 74.94C739.681 74.0067 739.874 73.1533 740.261 72.38C740.648 71.6067 741.208 70.9933 741.941 70.54C742.674 70.0733 743.548 69.84 744.561 69.84C745.494 69.84 746.281 70.0333 746.921 70.42C747.574 70.8067 748.061 71.3267 748.381 71.98C748.714 72.6333 748.881 73.3667 748.881 74.18C748.881 74.58 748.828 75.0333 748.721 75.54H742.261C742.394 76.42 742.741 77.08 743.301 77.52C743.861 77.9467 744.534 78.16 745.321 78.16C746.401 78.16 747.401 77.8867 748.321 77.34L748.441 79.44C748.014 79.6667 747.514 79.8533 746.941 80C746.381 80.1333 745.768 80.2 745.101 80.2ZM746.361 73.86C746.361 73.34 746.214 72.88 745.921 72.48C745.628 72.08 745.174 71.88 744.561 71.88C743.948 71.88 743.454 72.06 743.081 72.42C742.708 72.78 742.454 73.26 742.321 73.86H746.361ZM755.414 80.2C754.774 80.2 754.187 80.14 753.654 80.02C753.134 79.9 752.594 79.7133 752.034 79.46L752.254 77.34C752.814 77.6733 753.334 77.9267 753.814 78.1C754.307 78.26 754.814 78.34 755.334 78.34C756.347 78.34 756.854 78.0067 756.854 77.34C756.854 76.98 756.721 76.7067 756.454 76.52C756.187 76.32 755.707 76.0867 755.014 75.82C754.027 75.46 753.301 75.0533 752.834 74.6C752.367 74.1333 752.134 73.5067 752.134 72.72C752.134 71.8533 752.467 71.1533 753.134 70.62C753.801 70.0733 754.701 69.8 755.834 69.8C756.967 69.8 758.001 70.06 758.934 70.58L758.714 72.7C758.207 72.3533 757.727 72.0867 757.274 71.9C756.834 71.7133 756.367 71.62 755.874 71.62C755.447 71.62 755.114 71.7067 754.874 71.88C754.647 72.0533 754.534 72.3 754.534 72.62C754.534 72.8733 754.601 73.08 754.734 73.24C754.881 73.4 755.081 73.5467 755.334 73.68C755.587 73.8 756.007 73.9733 756.594 74.2C757.567 74.5733 758.267 74.9867 758.694 75.44C759.121 75.88 759.334 76.4733 759.334 77.22C759.334 78.1667 758.994 78.9 758.314 79.42C757.634 79.94 756.667 80.2 755.414 80.2ZM762.071 70H764.491L766.211 76.98L768.091 70.2H770.171L772.031 76.98L773.771 70H776.191L773.271 80H771.191L769.131 73.48L767.071 80H764.991L762.071 70ZM781.625 80.2C780.798 80.2 780.105 79.9333 779.545 79.4C778.998 78.8533 778.725 78.12 778.725 77.2C778.725 76.3333 779.038 75.64 779.665 75.12C780.291 74.5867 781.031 74.2133 781.885 74C782.738 73.7733 783.558 73.6467 784.345 73.62C784.318 73.0333 784.165 72.6133 783.885 72.36C783.618 72.1067 783.171 71.98 782.545 71.98C782.105 71.98 781.671 72.04 781.245 72.16C780.831 72.28 780.351 72.4733 779.805 72.74L779.585 70.72C780.798 70.1333 782.011 69.84 783.225 69.84C784.398 69.84 785.291 70.16 785.905 70.8C786.531 71.44 786.845 72.46 786.845 73.86V76.56C786.845 77.0667 786.865 77.4333 786.905 77.66C786.958 77.8733 787.038 78.0133 787.145 78.08C787.265 78.1333 787.458 78.16 787.725 78.16H788.045L787.825 80.2H786.925C786.378 80.2 785.918 80.1 785.545 79.9C785.171 79.6867 784.885 79.4 784.685 79.04C784.365 79.4 783.925 79.6867 783.365 79.9C782.818 80.1 782.238 80.2 781.625 80.2ZM782.665 78.3C782.918 78.3 783.205 78.24 783.525 78.12C783.845 77.9867 784.125 77.8067 784.365 77.58V75.3C783.565 75.34 782.858 75.5133 782.245 75.82C781.631 76.1267 781.325 76.5533 781.325 77.1C781.325 77.5133 781.431 77.82 781.645 78.02C781.858 78.2067 782.198 78.3 782.665 78.3ZM791.426 70H793.746L793.806 71.06C794.099 70.7267 794.472 70.4333 794.926 70.18C795.392 69.9267 795.879 69.8 796.386 69.8C796.546 69.8 796.692 69.8133 796.826 69.84L796.646 72.28C796.392 72.2133 796.106 72.18 795.786 72.18C795.372 72.18 794.992 72.28 794.646 72.48C794.299 72.6667 794.052 72.9 793.906 73.18V80H791.426V70ZM802.07 80.2C801.243 80.2 800.55 79.9333 799.99 79.4C799.443 78.8533 799.17 78.12 799.17 77.2C799.17 76.3333 799.483 75.64 800.11 75.12C800.737 74.5867 801.477 74.2133 802.33 74C803.183 73.7733 804.003 73.6467 804.79 73.62C804.763 73.0333 804.61 72.6133 804.33 72.36C804.063 72.1067 803.617 71.98 802.99 71.98C802.55 71.98 802.117 72.04 801.69 72.16C801.277 72.28 800.797 72.4733 800.25 72.74L800.03 70.72C801.243 70.1333 802.457 69.84 803.67 69.84C804.843 69.84 805.737 70.16 806.35 70.8C806.977 71.44 807.29 72.46 807.29 73.86V76.56C807.29 77.0667 807.31 77.4333 807.35 77.66C807.403 77.8733 807.483 78.0133 807.59 78.08C807.71 78.1333 807.903 78.16 808.17 78.16H808.49L808.27 80.2H807.37C806.823 80.2 806.363 80.1 805.99 79.9C805.617 79.6867 805.33 79.4 805.13 79.04C804.81 79.4 804.37 79.6867 803.81 79.9C803.263 80.1 802.683 80.2 802.07 80.2ZM803.11 78.3C803.363 78.3 803.65 78.24 803.97 78.12C804.29 77.9867 804.57 77.8067 804.81 77.58V75.3C804.01 75.34 803.303 75.5133 802.69 75.82C802.077 76.1267 801.77 76.5533 801.77 77.1C801.77 77.5133 801.877 77.82 802.09 78.02C802.303 78.2067 802.643 78.3 803.11 78.3ZM823.091 69.84C824.424 69.84 825.411 70.2467 826.051 71.06C826.704 71.86 827.031 72.9867 827.031 74.44V80H824.551V74.62C824.551 73.6733 824.404 72.98 824.111 72.54C823.818 72.1 823.338 71.88 822.671 71.88C822.018 71.88 821.524 72.1067 821.191 72.56C820.858 73 820.691 73.6267 820.691 74.44V80H818.211V74.62C818.211 73.6733 818.058 72.98 817.751 72.54C817.444 72.1 816.958 71.88 816.291 71.88C815.504 71.88 814.858 72.1667 814.351 72.74V80H811.871V70H813.991L814.071 70.8C814.978 70.16 815.958 69.84 817.011 69.84C818.291 69.84 819.244 70.3 819.871 71.22C820.218 70.78 820.671 70.44 821.231 70.2C821.791 69.96 822.411 69.84 823.091 69.84ZM838.126 66H840.686V80H838.126V66ZM848.035 80.2C847.395 80.2 846.808 80.14 846.275 80.02C845.755 79.9 845.215 79.7133 844.655 79.46L844.875 77.34C845.435 77.6733 845.955 77.9267 846.435 78.1C846.928 78.26 847.435 78.34 847.955 78.34C848.968 78.34 849.475 78.0067 849.475 77.34C849.475 76.98 849.342 76.7067 849.075 76.52C848.808 76.32 848.328 76.0867 847.635 75.82C846.648 75.46 845.922 75.0533 845.455 74.6C844.988 74.1333 844.755 73.5067 844.755 72.72C844.755 71.8533 845.088 71.1533 845.755 70.62C846.422 70.0733 847.322 69.8 848.455 69.8C849.588 69.8 850.622 70.06 851.555 70.58L851.335 72.7C850.828 72.3533 850.348 72.0867 849.895 71.9C849.455 71.7133 848.988 71.62 848.495 71.62C848.068 71.62 847.735 71.7067 847.495 71.88C847.268 72.0533 847.155 72.3 847.155 72.62C847.155 72.8733 847.222 73.08 847.355 73.24C847.502 73.4 847.702 73.5467 847.955 73.68C848.208 73.8 848.628 73.9733 849.215 74.2C850.188 74.5733 850.888 74.9867 851.315 75.44C851.742 75.88 851.955 76.4733 851.955 77.22C851.955 78.1667 851.615 78.9 850.935 79.42C850.255 79.94 849.288 80.2 848.035 80.2ZM858.212 80.2C857.359 80.2 856.719 79.96 856.292 79.48C855.866 78.9867 855.652 78.3533 855.652 77.58V65H858.132V76.56C858.132 77.0933 858.159 77.4733 858.212 77.7C858.279 77.9133 858.386 78.0467 858.532 78.1C858.692 78.14 858.959 78.16 859.332 78.16L859.112 80.2H858.212ZM865.066 80.2C864.239 80.2 863.546 79.9333 862.986 79.4C862.439 78.8533 862.166 78.12 862.166 77.2C862.166 76.3333 862.479 75.64 863.106 75.12C863.733 74.5867 864.473 74.2133 865.326 74C866.179 73.7733 866.999 73.6467 867.786 73.62C867.759 73.0333 867.606 72.6133 867.326 72.36C867.059 72.1067 866.613 71.98 865.986 71.98C865.546 71.98 865.113 72.04 864.686 72.16C864.273 72.28 863.793 72.4733 863.246 72.74L863.026 70.72C864.239 70.1333 865.453 69.84 866.666 69.84C867.839 69.84 868.733 70.16 869.346 70.8C869.973 71.44 870.286 72.46 870.286 73.86V76.56C870.286 77.0667 870.306 77.4333 870.346 77.66C870.399 77.8733 870.479 78.0133 870.586 78.08C870.706 78.1333 870.899 78.16 871.166 78.16H871.486L871.266 80.2H870.366C869.819 80.2 869.359 80.1 868.986 79.9C868.613 79.6867 868.326 79.4 868.126 79.04C867.806 79.4 867.366 79.6867 866.806 79.9C866.259 80.1 865.679 80.2 865.066 80.2ZM866.106 78.3C866.359 78.3 866.646 78.24 866.966 78.12C867.286 77.9867 867.566 77.8067 867.806 77.58V75.3C867.006 75.34 866.299 75.5133 865.686 75.82C865.073 76.1267 864.766 76.5533 864.766 77.1C864.766 77.5133 864.873 77.82 865.086 78.02C865.299 78.2067 865.639 78.3 866.106 78.3ZM879.907 69.84C881.147 69.84 882.087 70.2533 882.727 71.08C883.367 71.9067 883.687 73.02 883.687 74.42V80H881.207V74.62C881.207 73.6867 881.047 73 880.727 72.56C880.42 72.1067 879.92 71.88 879.227 71.88C878.467 71.88 877.84 72.1667 877.347 72.74V80H874.867V70H877.187L877.227 70.7C878.067 70.1267 878.96 69.84 879.907 69.84ZM897.022 65V80H894.682L894.642 79.36C894.256 79.64 893.849 79.8533 893.422 80C893.009 80.1333 892.516 80.2 891.942 80.2C890.969 80.2 890.129 79.9667 889.422 79.5C888.729 79.0333 888.202 78.4067 887.842 77.62C887.482 76.8333 887.302 75.9667 887.302 75.02C887.302 74.0733 887.482 73.2067 887.842 72.42C888.202 71.6333 888.729 71.0067 889.422 70.54C890.129 70.0733 890.969 69.84 891.942 69.84C892.916 69.84 893.782 70.1067 894.542 70.64V65H897.022ZM892.302 78.16C893.089 78.16 893.676 77.88 894.062 77.32C894.462 76.76 894.662 75.9933 894.662 75.02C894.662 74.0467 894.462 73.28 894.062 72.72C893.676 72.16 893.089 71.88 892.302 71.88C891.529 71.88 890.922 72.1667 890.482 72.74C890.056 73.3133 889.842 74.0733 889.842 75.02C889.842 75.9667 890.056 76.7267 890.482 77.3C890.922 77.8733 891.529 78.16 892.302 78.16Z" fill="black"/>
<defs>
<linearGradient id="paint0_linear_452_79" x1="2.47466e-06" y1="44.0002" x2="1111" y2="44.0002" gradientUnits="userSpaceOnUse">
<stop offset="0.208333" stop-color="white"/>
<stop offset="0.5" stop-color="#01EFF6"/>
<stop offset="0.817708" stop-color="white"/>
</linearGradient>
</defs>
</svg>
